<svg height="32" viewBox="0 0 32 32" width="32" xmlns="http://www.w3.org/2000/svg"><path d="m2.8 2.75h1.4v2.8h-1.4z" class="fill-secondary"/><path d="m6.95 2.75h1.4v2.8h-1.4z" class="fill-secondary"/><path d="m11.15 2.75h1.4v2.8h-1.4z" class="fill-secondary"/><path d="m15.3 2.75h1.4v2.8h-1.4z" class="fill-secondary"/><path d="m19.5 2.75h1.4v2.8h-1.4z" class="fill-secondary"/><path d="m23.65 2.75h1.4v2.8h-1.4z" class="fill-secondary"/><path d="m27.85 2.75h1.4v2.8h-1.4z" class="fill-secondary"/><path d="m19.5 29.2h-19.5v-20.9h32v8.35h-1.4v-6.95h-29.2v18.1h18.1z" class="fill-secondary"/><path d="m0 4.15h32v5.55h-32z" fill="#d0d9f3"/><g class="fill-secondary"><path d="m15.3 12.5h1.4v1.4h-1.4z"/><path d="m12.5 12.5h1.4v1.4h-1.4z"/><path d="m18.1 12.5h1.4v1.4h-1.4z"/><path d="m20.85 12.5h1.4v1.4h-1.4z"/><path d="m23.65 12.5h1.4v1.4h-1.4z"/><path d="m26.45 12.5h1.4v1.4h-1.4z"/><path d="m4.15 15.25h1.4v1.4h-1.4z"/><path d="m6.95 15.25h1.4v1.4h-1.4z"/><path d="m9.75 15.25h1.4v1.4h-1.4z"/><path d="m12.5 15.25h1.4v1.4h-1.4z"/><path d="m15.3 15.25h1.4v1.4h-1.4z"/><path d="m18.1 15.25h1.4v1.4h-1.4z"/><path d="m20.85 15.25h1.4v1.4h-1.4z"/><path d="m23.65 15.25h1.4v1.4h-1.4z"/><path d="m26.45 15.25h1.4v1.4h-1.4z"/><path d="m4.15 18.05h1.4v1.4h-1.4z"/><path d="m6.95 18.05h1.4v1.4h-1.4z"/><path d="m9.75 18.05h1.4v1.4h-1.4z"/><path d="m12.5 18.05h1.4v1.4h-1.4z"/><path d="m15.3 18.05h1.4v1.4h-1.4z"/><path d="m18.1 18.05h1.4v1.4h-1.4z"/><path d="m4.15 20.85h1.4v1.4h-1.4z"/><path d="m6.95 20.85h1.4v1.4h-1.4z"/><path d="m9.75 20.85h1.4v1.4h-1.4z"/><path d="m12.5 20.85h1.4v1.4h-1.4z"/><path d="m15.3 20.85h1.4v1.4h-1.4z"/><path d="m18.1 20.85h1.4v1.4h-1.4z"/><path d="m4.15 23.6h1.4v1.4h-1.4z"/><path d="m6.95 23.6h1.4v1.4h-1.4z"/><path d="m9.75 23.6h1.4v1.4h-1.4z"/><path d="m12.5 23.6h1.4v1.4h-1.4z"/><path d="m15.3 23.6h1.4v1.4h-1.4z"/></g><path d="m32 23.6c0 3.065-2.485 5.55-5.55 5.55s-5.55-2.485-5.55-5.55 2.485-5.55 5.55-5.55 5.55 2.485 5.55 5.55z" class="fill-primary"/><path d="m25.75 26-1.9-1.9 1-.95.9.9 2.3-2.3.95.95z" fill="#fff"/><path d="m0 8.3h32v1.4h-32z" class="fill-secondary"/><path d="m2.8 4.15h1.4v1.4h-1.4z" class="fill-secondary"/><path d="m6.95 4.15h1.4v1.4h-1.4z" class="fill-secondary"/><path d="m11.15 4.15h1.4v1.4h-1.4z" class="fill-secondary"/><path d="m15.3 4.15h1.4v1.4h-1.4z" class="fill-secondary"/><path d="m19.5 4.15h1.4v1.4h-1.4z" class="fill-secondary"/><path d="m23.65 4.15h1.4v1.4h-1.4z" class="fill-secondary"/><path d="m27.85 4.15h1.4v1.4h-1.4z" class="fill-secondary"/></svg>