<svg xmlns="http://www.w3.org/2000/svg" width="23" height="26" fill="none"><path d="M10.141.331c-3.402.39-6.262 2.057-8.013 4.671A10.025 10.025 0 0 0 .829 7.697a12.282 12.282 0 0 0-.306 6.237c.443 2.11 1.446 4.267 2.944 6.325.769 1.058 1.64 2.056 2.71 3.107.95.933 1.379 1.252 2.237 1.665a6.852 6.852 0 0 0 3.086.696c1.13 0 2.117-.226 3.129-.719.857-.416 1.465-.892 2.525-1.975 2.947-3.01 4.724-6.082 5.362-9.271.545-2.723.067-5.87-1.231-8.108C19.531 2.632 16.532.75 12.796.328c-.645-.073-2.006-.072-2.655.003m2.528 1.491c1.324.155 2.326.444 3.45.996 3.16 1.551 4.992 4.516 5.105 8.26.068 2.227-.516 4.352-1.82 6.624-.866 1.508-1.977 2.928-3.457 4.418-.958.963-1.441 1.323-2.224 1.657-.804.342-1.496.468-2.413.438-1.143-.037-2.03-.322-2.984-.957-.639-.425-2.091-1.902-3.06-3.114-1.668-2.086-2.798-4.318-3.25-6.421-.194-.901-.232-1.293-.231-2.357.002-1.147.066-1.679.322-2.679.97-3.795 4.059-6.385 8.185-6.865.602-.069 1.78-.07 2.377 0m-1.763 4.7a4.696 4.696 0 0 0-2.542 1.203c-.978.906-1.52 2.331-1.387 3.65.114 1.131.557 2.036 1.384 2.828.864.826 1.92 1.245 3.139 1.245 1.219 0 2.275-.419 3.139-1.245.827-.792 1.27-1.697 1.384-2.828.133-1.319-.409-2.744-1.387-3.65a4.624 4.624 0 0 0-3.73-1.203m1.415 1.565c.808.207 1.581.859 1.956 1.651.178.375.25.728.25 1.225 0 .884-.262 1.506-.896 2.128-.608.596-1.267.862-2.131.862-.875 0-1.53-.268-2.149-.881-.374-.371-.596-.717-.749-1.17-.135-.4-.171-1.145-.077-1.589.244-1.15 1.286-2.109 2.497-2.3.328-.051.946-.016 1.299.074" fill-rule="evenodd" fill="#000"/></svg>